<?xml version="1.0" standalone="no"?>
<!DOCTYPE svg PUBLIC "-//W3C//DTD SVG 20010904//EN"
 "http://www.w3.org/TR/2001/REC-SVG-20010904/DTD/svg10.dtd">
<svg version="1.0" xmlns="http://www.w3.org/2000/svg"
 width="300.000000pt" height="61.000000pt" viewBox="0 0 300.000000 61.000000"
 preserveAspectRatio="xMidYMid meet">
<metadata>
Created by potrace 1.10, written by Peter Selinger 2001-2011
</metadata>
<g transform="translate(0.000000,61.000000) scale(0.100000,-0.100000)"
fill="#000000" stroke="none">
<path d="M1633 596 c-130 -43 -213 -154 -213 -287 0 -123 54 -215 161 -274 48
-27 63 -30 139 -30 70 0 94 4 134 24 229 113 231 432 4 547 -61 31 -164 40
-225 20z m157 -181 c79 -41 79 -179 0 -220 -62 -32 -146 -11 -175 45 -18 35
-19 97 -1 128 31 56 115 79 176 47z"/>
<path d="M50 515 l0 -85 75 0 74 0 -33 -72 c-19 -40 -63 -135 -99 -210 l-66
-138 215 0 215 0 -3 83 -3 82 -72 3 c-40 2 -73 6 -73 11 0 4 43 96 95 205 52
108 95 199 95 201 0 3 -94 5 -210 5 l-210 0 0 -85z"/>
<path d="M500 305 l0 -295 205 0 205 0 0 85 0 85 -120 0 -120 0 0 25 c0 25 0
25 100 25 l100 0 0 70 0 69 -97 3 c-97 3 -98 3 -98 28 l0 25 118 3 117 3 0 84
0 85 -205 0 -205 0 0 -295z"/>
<path d="M950 305 l0 -295 80 0 80 0 0 103 0 102 57 -103 56 -102 84 0 83 0 0
295 0 295 -90 0 -89 0 -3 -107 -3 -108 -47 105 -47 105 -81 3 -80 3 0 -296z"/>
<path d="M2020 590 c0 -16 138 -530 150 -557 9 -22 15 -23 109 -23 l99 0 11
33 c5 17 40 142 76 277 36 135 68 253 71 263 5 15 -4 17 -89 17 l-95 0 -31
-128 c-18 -70 -36 -133 -40 -140 -4 -7 -22 47 -42 125 l-35 138 -92 3 c-63 2
-92 -1 -92 -8z"/>
<path d="M2621 576 c-5 -13 -47 -145 -94 -295 l-84 -271 87 0 88 0 6 35 7 35
89 0 88 0 12 -35 12 -35 84 0 c77 0 85 2 80 18 -45 142 -176 566 -176 568 0 2
-43 4 -95 4 -91 0 -96 -1 -104 -24z m129 -318 c0 -13 -8 -18 -31 -18 -34 0
-34 -4 -7 95 l11 40 13 -50 c8 -27 14 -58 14 -67z"/>
</g>
</svg>
